<svg width="1655" height="354" viewBox="0 0 1655 354" fill="none" xmlns="http://www.w3.org/2000/svg">
<path fill-rule="evenodd" clip-rule="evenodd" d="M1560 272.302C1560.2 272.302 1560.37 272.302 1560.5 272.302C1560.7 272.302 1560.87 272.302 1561 272.302M1465.9 175.702C1466.3 82.102 1547.9 80.802 1560.5 80.902C1573.2 80.802 1654.8 82.102 1655 175.702C1655.2 268.502 1574.7 272.402 1560.5 272.302C1546.4 272.402 1465.9 268.502 1465.9 175.702ZM1560.9 246.502C1566.1 246.502 1604.2 248.102 1603.9 172.202C1603.6 101.902 1566.8 103.802 1560.6 103.802C1554.3 103.802 1517.5 101.902 1517.2 172.202C1516.9 248.102 1555 246.502 1560.2 246.502H1560.9ZM1560.5 103.802C1560.5 103.802 1560.53 103.802 1560.6 103.802H1560.5Z" fill="black"/>
<path d="M1442.3 91.5011V114.801C1432.7 110.701 1427.2 107.701 1417 104.901C1409 103.201 1374.7 95.0011 1358.2 112.301C1351.3 119.301 1349.2 132.101 1363 142.001C1382.5 154.601 1410.3 160.501 1433.1 179.101C1448.1 190.901 1453 204.801 1449.2 226.101C1445.2 247.701 1421.6 265.201 1400.4 269.601C1369.5 275.901 1334.8 272.901 1307.2 261.301L1307.4 238.301C1332.7 248.901 1372 262.401 1396.4 241.001C1403.2 234.801 1407.3 226.101 1403.7 217.101C1398.2 200.501 1352.9 190.601 1325.2 170.001C1297.8 153.101 1300.3 124.201 1309.9 108.301C1335.7 69.6011 1401.3 80.3011 1442.3 91.5011Z" fill="black"/>
<path d="M1283.9 91.5011V114.801C1274.3 110.701 1268.8 107.701 1258.6 104.901C1250.7 103.201 1216.2 95.0011 1199.8 112.301C1192.8 119.301 1190.7 132.101 1204.4 142.001C1224 154.601 1251.8 160.501 1274.7 179.101C1289.7 190.901 1294.5 204.801 1290.6 226.101C1286.8 247.701 1263.1 265.201 1242 269.601C1211.1 275.901 1176.4 272.901 1148.9 261.301L1149 238.301C1174.3 248.901 1213.6 262.401 1238.1 241.001C1244.6 234.801 1248.8 226.101 1245.3 217.101C1239.7 200.501 1194.4 190.601 1166.8 170.001C1139.4 153.101 1141.8 124.201 1151.4 108.301C1177.2 69.6011 1242.8 80.3011 1283.9 91.5011Z" fill="black"/>
<path d="M634.896 91.5011V114.801C625.096 110.701 619.796 107.701 609.496 104.901C601.496 103.201 567.196 95.0011 550.796 112.301C543.796 119.301 541.696 132.101 555.496 142.001C574.896 154.601 602.796 160.501 625.596 179.101C640.596 190.901 645.396 204.801 641.596 226.101C637.796 247.701 613.996 265.201 592.896 269.601C562.096 275.901 527.296 272.901 499.796 261.301L499.896 238.301C525.296 248.901 564.596 262.401 589.096 241.001C595.696 234.801 599.796 226.101 596.196 217.101C590.696 200.501 545.396 190.601 517.696 170.001C490.296 153.101 492.796 124.201 502.296 108.301C528.196 69.6011 593.796 80.3011 634.896 91.5011Z" fill="black"/>
<path d="M401.097 250.502C426.197 253.002 456.697 249.102 481.097 248.502L481.197 269.202H348.797C348.797 269.202 352.997 264.902 352.997 257.702V95.3015C352.997 88.1015 348.797 83.6016 348.797 83.6016H481.197L481.097 104.402C456.697 104.002 426.197 100.002 401.097 102.502C401.097 102.502 401.097 159.902 401.097 163.802C421.597 165.102 445.797 165.302 464.897 162.902V184.902C446.097 183.102 421.397 182.802 401.097 183.902V190.902" fill="black"/>
<path d="M1050.9 250.502C1076 253.002 1106.5 249.102 1131 248.502V269.202H998.797C998.797 269.202 1002.8 264.902 1002.8 257.702V95.3015C1002.8 88.1015 998.797 83.6016 998.797 83.6016H1131V104.402C1106.5 104.002 1076 100.002 1050.9 102.502C1050.9 102.502 1050.9 159.902 1050.9 163.802C1071.4 165.102 1095.6 165.302 1114.9 162.902V184.902C1096 183.102 1071.2 182.802 1050.9 183.902V190.902" fill="black"/>
<path fill-rule="evenodd" clip-rule="evenodd" d="M871.095 192.602V257.702C871.195 264.902 875.295 269.302 875.295 269.302L818.695 269.202C818.695 269.202 822.795 264.902 822.795 257.702V95.3015C822.795 88.1015 818.695 83.6016 818.695 83.6016H915.195C941.395 84.7016 969.095 99.2015 969.895 130.702C970.195 156.402 958.795 171.202 941.695 179.402C938.395 181.002 938.695 180.602 937.495 181.402C949.695 209.602 960.695 230.402 975.395 257.702C978.395 264.902 984.295 269.202 984.295 269.202H925.795C925.795 269.202 929.395 264.902 925.795 257.702C925.795 257.702 904.995 208.802 895.295 192.602M870.795 107.002V169.702C886.795 169.702 906.095 171.802 917.195 159.002C926.595 146.402 924.995 130.302 918.795 118.802C907.695 100.102 870.795 107.002 870.795 107.002Z" fill="black"/>
<path fill-rule="evenodd" clip-rule="evenodd" d="M712.502 257.702C712.502 264.902 716.602 269.302 716.602 269.302L660.102 269.202C660.102 269.202 664.202 264.902 664.202 257.702V95.3015C664.202 88.1015 660.102 83.6016 660.102 83.6016H753.502C776.902 84.5016 795.102 95.3015 802.802 118.002C808.702 137.902 807.902 163.702 793.702 179.902C774.802 204.902 712.302 201.302 712.302 201.302M712.302 107.302L712.102 177.002C728.202 178.102 747.402 179.902 758.502 167.002C767.902 154.502 766.402 130.302 760.002 119.002C748.902 100.202 712.302 107.302 712.302 107.302Z" fill="black"/>
<path d="M286.9 83.6004C286.9 83.6004 291.1 88.4004 291.1 95.1004V177.3C266.5 148.3 244.8 115.4 219.5 85.9003C210.1 74.5003 192.2 55.5003 185.4 49.7003C141 6.20033 68 -13.6997 0 10.3003V13.0003C23.3 8.00032 53.5 9.80033 83.2 21.7003C105.4 29.9003 137.1 54.6003 155.4 77.3003C179.1 104.3 229.6 173.8 229.6 173.8C258.6 211.4 284.2 245.7 313.8 281.3V95.1004C313.9 88.4004 318.1 83.6004 318.1 83.6004" fill="black"/>
<path d="M154.902 269.497C154.902 269.497 150.702 264.797 150.702 257.897V175.697C175.202 204.797 197.002 237.697 222.302 267.197C231.702 278.497 249.502 297.597 256.402 303.397C300.802 346.897 373.702 366.797 441.702 342.797V340.097C418.402 344.997 388.202 343.397 358.602 331.297C336.402 323.097 304.702 298.497 286.402 275.797C262.602 248.697 212.102 179.297 212.102 179.297C183.102 141.697 157.502 107.297 127.802 71.7969V257.897C127.802 264.797 123.602 269.497 123.602 269.497" fill="black"/>
</svg>
