<?xml version="1.0" encoding="utf-8"?>
<!-- Generator: Adobe Illustrator 27.9.0, SVG Export Plug-In . SVG Version: 6.00 Build 0)  -->
<svg version="1.1" id="Layer_1" xmlns="http://www.w3.org/2000/svg" xmlns:xlink="http://www.w3.org/1999/xlink" x="0px" y="0px"
	 viewBox="0 0 1708.7 457.2" style="enable-background:new 0 0 1708.7 457.2;" xml:space="preserve">
<style type="text/css">
	.st0{fill:#0084CA;}
	.st1{fill-rule:evenodd;clip-rule:evenodd;fill:#0084CA;}
</style>
<g>
	<path class="st0" d="M182,360.3h-55.8V98.9h56.9l-0.8,116.9L290.7,98.9h63.9L251,214.2l108.7,146.1h-64.5l-82.3-107.8L182,284.9
		L182,360.3L182,360.3z"/>
	<path class="st0" d="M424.2,360.3H369L477.6,98.9h49.2l108.1,261.4h-55.2l-19.5-49.5h-116L424.2,360.3L424.2,360.3z M501.6,170.9
		l-38.1,94.7h77.2L501.6,170.9z"/>
	<path class="st0" d="M768.7,360.3h-55.4v-98.2L614.7,98.9h58.2l67.8,110.5l67.6-110.5h59.1l-98.6,163.2L768.7,360.3L768.7,360.3z"
		/>
	<path class="st0" d="M1306.5,360.3h-174.9V99.2h174.7v49.8H1186v51.5h110.5v49.1H1186v60.9h120.5L1306.5,360.3L1306.5,360.3z"/>
	<path class="st0" d="M1421.2,360.3h-53.3V99.7h108.9c24.5,0,45.3,8.3,62.3,25c17.5,16.4,26.2,36.8,26.2,61c0,16.6-5.7,31.5-14,44.8
		s-21.7,22.6-33.7,29.1l64.8,100.6h-59.9l-58-89.8h-43.3L1421.2,360.3L1421.2,360.3z M1421.2,149.4V225h50.3
		c11.3,0,21.8-3.5,28.6-10.6c6.8-7,11.7-16.4,11.7-28.2c0-10.6-4.6-19.4-10.8-26.4c-6.3-7-16.9-10.6-26-10.6H1421.2L1421.2,149.4z"
		/>
	<path class="st1" d="M1080.3,267.9c-8.7-48.6-65-59.4-104.4-74.7c-1.4-0.6-2.8-1-4.3-1.5c-17.5-5.6-34.3-20.3-23.1-36.3
		c2.8-3.9,6.7-6.9,11-8.9c23.9-10.8,55.5-2.8,69.8,19.7c12.5-8.7,40-28,40-28s-0.4-0.7-0.8-1.3c-21.9-35-65.5-47.8-104.8-42.3
		c-45.5,4.9-83.3,45.4-69.7,92.3c15.1,52.6,80.5,53.5,120.4,77.7c20.9,11.6,13.2,39.5-7.6,46c-32.7,12-72.9-1.9-90.8-32
		c-13.7,7.8-26.8,17.1-40.2,25.5c7.5,15.5,14.7,23.9,20.9,30C955.7,388.5,1098.8,369.3,1080.3,267.9L1080.3,267.9z"/>
</g>
<path class="st0" d="M1595.2,70.7c4.9,0,9.6,1.2,14.3,3.8s8.2,6.1,10.8,10.7s3.9,9.5,3.9,14.6c0,5-1.3,9.8-3.8,14.4
	c-2.6,4.6-6.1,8.2-10.7,10.7c-4.6,2.6-9.4,3.8-14.4,3.8s-9.8-1.3-14.4-3.8c-4.6-2.5-8.2-6.1-10.7-10.7c-2.6-4.6-3.8-9.4-3.8-14.4
	c0-5,1.3-9.9,3.9-14.6s6.2-8.2,10.9-10.7C1585.6,71.9,1590.4,70.7,1595.2,70.7L1595.2,70.7z M1595.2,75.5c-4.1,0-8,1-11.9,3.1
	c-3.9,2.1-6.9,5.1-9.1,9s-3.3,7.9-3.3,12.1c0,4.2,1.1,8.2,3.2,12c2.1,3.8,5.1,6.8,9,9s7.8,3.2,12,3.2s8.2-1.1,12-3.2
	c3.8-2.1,6.8-5.1,9-9c2.1-3.8,3.2-7.8,3.2-12c0-4.2-1.1-8.2-3.2-12.1c-2.2-3.9-5.2-6.9-9.1-9C1603.2,76.5,1599.3,75.5,1595.2,75.5
	L1595.2,75.5z M1582.5,115.7V84.5h10.7c3.7,0,6.3,0.3,8,0.9c1.6,0.6,2.9,1.6,3.9,3c1,1.4,1.5,3,1.5,4.6c0,2.3-0.8,4.3-2.4,6
	c-1.6,1.7-3.8,2.6-6.5,2.8c1.1,0.5,2,1,2.7,1.7c1.3,1.2,2.8,3.3,4.6,6.2l3.8,6.1h-6.2l-2.8-4.9c-2.2-3.9-3.9-6.3-5.3-7.3
	c-0.9-0.7-2.3-1.1-4-1.1h-3v13.3H1582.5L1582.5,115.7z M1587.5,98.1h6.1c2.9,0,4.9-0.4,6-1.3c1.1-0.9,1.6-2,1.6-3.5
	c0-0.9-0.3-1.8-0.8-2.5c-0.5-0.7-1.2-1.3-2.1-1.6s-2.6-0.5-5.1-0.5h-5.7L1587.5,98.1L1587.5,98.1z"/>
</svg>
